<?xml version="1.0" encoding="UTF-8"?> <svg xmlns="http://www.w3.org/2000/svg" xmlns:xlink="http://www.w3.org/1999/xlink" xml:space="preserve" width="60.9956mm" height="7.9147mm" version="1.1" style="shape-rendering:geometricPrecision; text-rendering:geometricPrecision; image-rendering:optimizeQuality; fill-rule:evenodd; clip-rule:evenodd" viewBox="0 0 2269.73 294.52"> <defs> <style type="text/css"> .fil0 {fill:#202020;fill-rule:nonzero} </style> </defs> <g id="Camada_x0020_1"> <metadata id="CorelCorpID_0Corel-Layer"></metadata> <path class="fil0" d="M55.85 294.52l-55.85 0 0 -293.85 55.85 0c81.11,0 146.93,65.82 146.93,146.93 0,81.11 -65.82,146.93 -146.93,146.93zm0 -55.84c49.86,0 91.08,-40.56 91.08,-91.08 0,-50.53 -41.22,-91.08 -91.08,-91.08l0 182.16zm509.26 55.84l-55.84 0 0 -71.13 -53.19 -101.72 0 100.39 -55.85 0 0 -221.39 55.85 0 53.19 101.72 0 -101.72 55.84 0 0 293.85zm-72.47 0l-164.88 0 0 -119 -53.19 0 0 119 -55.85 0 0 -211.41c0,-45.21 37.23,-82.44 82.44,-82.44 45.21,0 82.44,37.23 82.44,82.44l0 155.57 109.03 0 0 55.84zm-164.88 -174.85l0 -36.56c0,-14.63 -11.97,-26.59 -26.59,-26.59 -14.62,0 -26.59,11.97 -26.59,26.59l0 36.56 53.19 0zm309.14 174.85l-55.85 0 0 -293.85 55.85 0 0 293.85zm148.26 0l-132.3 0 0 -293.85 132.3 0 0 55.85 -76.45 0 0 63.16 76.45 0 0 55.85 -76.45 0 0 63.16 76.45 0 0 55.84zm147.59 0l-131.64 0 0 -293.85 55.85 0 0 238.01 75.79 0 0 55.84zm232.02 0c-81.77,0 -147.59,-65.82 -147.59,-146.93 0,-81.11 65.82,-146.93 147.59,-146.93 81.11,0 146.93,65.82 146.93,146.93 0,81.11 -65.82,146.93 -146.93,146.93zm0 -55.84c49.86,0 91.08,-40.56 91.08,-91.08 0,-50.53 -41.22,-91.08 -91.08,-91.08 -50.53,0 -91.08,40.56 -91.08,91.08 0,50.53 40.56,91.08 91.08,91.08zm327.76 55.84l-164.88 0 0 -294.52 56.51 0 0 238.67 108.37 0 0 55.84zm0 -72.47l0 -222.05 -55.84 0 0 222.05 55.84 0zm343.72 72.47l-132.3 0 0 -222.05 132.3 0 0 55.85 -76.45 0 0 27.26 76.45 0 0 55.85 -76.45 0 0 27.26 76.45 0 0 55.84zm-205.43 0l56.51 -238.01 148.92 0 0 -56.51 -193.47 0 -37.9 162.22 -38.56 -162.22 -57.84 0 70.47 294.52 51.86 0zm277.24 0l-55.85 0 0 -293.85 55.85 0 0 293.85zm361.67 0l0 -211.41c0,-45.21 -37.23,-82.44 -82.44,-82.44 -45.21,0 -82.44,37.23 -82.44,82.44l0 139.61 55.85 0 0 -47.2 53.19 0 0 119 55.85 0zm-71.8 0l-174.19 0 -43.88 -119 0 119 -55.85 0 0 -293.85 82.44 0c45.21,0 82.44,37.23 82.44,82.44 0,39.89 -11.97,67.81 -47.2,84.43l26.59 71.14 129.64 0 0 55.84zm-191.47 -174.85c14.63,0 26.59,-11.97 26.59,-26.59 0,-21.28 -5.32,-36.57 -26.59,-36.57l-26.59 0 0 63.16 26.59 0zm207.43 0l-53.19 0 0 -36.56c0,-14.63 11.97,-26.59 26.59,-26.59 14.62,0 26.59,11.97 26.59,26.59l0 36.56z"></path> </g> </svg> 