<?xml version="1.0" encoding="UTF-8"?> <svg xmlns="http://www.w3.org/2000/svg" xmlns:xlink="http://www.w3.org/1999/xlink" xml:space="preserve" width="80.2346mm" height="27.4993mm" version="1.1" style="shape-rendering:geometricPrecision; text-rendering:geometricPrecision; image-rendering:optimizeQuality; fill-rule:evenodd; clip-rule:evenodd" viewBox="0 0 4912.38 1683.65"> <defs> <style type="text/css"> .fil0 {fill:#F9FAFD;fill-rule:nonzero} </style> </defs> <g id="Camada_x0020_1"> <metadata id="CorelCorpID_0Corel-Layer"></metadata> <path class="fil0" d="M173.93 469.27l0 271.28 -173.93 0 0 -729.61 287.32 0c63.99,0 113.03,6.92 147.12,20.6 33.91,13.67 64.36,38.1 90.97,73.47 26.8,35.19 40.11,78.39 40.11,129.8 0,35.91 -7.11,70.92 -21.33,105.2 -14.22,34.09 -34.27,61.07 -60.34,80.58 -25.89,19.69 -51.05,32.63 -75.48,39.01 -24.25,6.39 -62.53,9.67 -114.49,9.67l-119.96 0zm-5.47 -132.36l110.84 0c42.29,0 71.83,-9.85 88.97,-29.35 16.96,-19.69 25.52,-42.11 25.52,-67.45 0,-29.54 -9.48,-53.05 -28.44,-70.56 -19.15,-17.5 -47.95,-26.25 -86.6,-26.25l-110.3 0 0 193.61zm663.43 115.95l0 287.69 -171.74 0 0 -729.61 320.69 0c59.07,0 106.65,6.92 142.39,20.6 35.92,13.86 65.63,39.01 89.15,75.84 23.52,36.83 35.19,77.85 35.19,122.88 0,87.87 -42.29,150.95 -126.88,189.24l134.54 321.05 -188.33 0 -112.3 -287.69 -122.7 0zm0 -310.66l0 185.96 105.01 0c34.27,0 59.25,-2.37 74.75,-7.29 15.68,-4.74 29.35,-15.5 41.57,-31.9 12.21,-16.59 18.23,-35.55 18.23,-57.06 0,-20.24 -6.02,-38.47 -18.23,-54.51 -12.21,-15.86 -25.34,-25.89 -39.56,-29.54 -14.4,-3.83 -41.2,-5.65 -80.39,-5.65l-101.36 0zm806.18 609.29c-98.08,0 -174.11,-36.83 -227.89,-110.48 -53.79,-73.84 -80.58,-162.99 -80.58,-267.63 0,-106.47 27.17,-195.26 81.67,-266.54 54.51,-71.28 132,-106.84 232.82,-106.84 101.73,0 178.48,37.92 230.26,113.95 51.78,76.02 77.66,163.17 77.66,261.07 0,105.74 -26.61,194.89 -80.03,267.45 -53.41,72.74 -131.26,109.02 -233.9,109.02zm4.92 -612.57c-89.33,0 -134,78.76 -134,236.46 0,158.07 44.66,237.19 134,237.19 86.42,0 129.63,-78.94 129.63,-236.64 0,-158.07 -43.21,-237.01 -129.63,-237.01zm420.77 -127.98l222.43 0c90.61,0 158.06,12.58 202.55,37.74 44.49,25.16 84.23,64.72 119.41,119.23 35.19,54.33 52.87,122.88 52.87,206.01 0,104.28 -30.81,191.61 -92.25,261.62 -61.44,70.01 -146.21,105.01 -254.32,105.01l-250.68 0 0 -729.61zm167.37 134.54l0 458.33 70.19 0c62.17,0 108.3,-23.33 138.38,-69.83 30.08,-46.49 45.21,-101.18 45.21,-163.89 0,-44.12 -8.57,-85.14 -25.89,-122.7 -17.14,-37.56 -38.47,-63.99 -63.99,-79.13 -25.52,-15.13 -56.34,-22.79 -92.07,-22.79l-71.83 0zm1116.29 -134.54l0 454.14c0,73.47 -8.38,127.98 -25.16,163.72 -16.59,35.91 -47.58,65.27 -92.62,88.24 -45.03,22.97 -102.45,34.46 -172.65,34.46 -70.19,0 -125.98,-10.4 -167.36,-30.99 -41.57,-20.6 -72.56,-49.95 -93.16,-88.24 -20.6,-38.1 -30.99,-93.71 -30.99,-167.18l0 -454.14 184.86 0 0 454.5c0,39.2 3.28,68.19 9.85,86.6 6.56,18.6 19.87,33.37 39.56,44.3 19.69,10.76 44.13,16.22 72.93,16.22 32.09,0 58.16,-5.28 78.22,-16.04 20.05,-10.76 33.55,-24.8 40.11,-42.48 6.56,-17.68 9.85,-47.22 9.85,-88.61l0 -454.5 146.57 0zm723.41 272.01l-179.39 11.3c-2.55,-103.55 -42.48,-155.33 -120.14,-155.33 -89.15,0 -133.64,79.31 -133.64,238.1 0,91.7 12.03,153.87 36.28,186.5 24.25,32.63 57.97,49.04 101.36,49.04 70.55,0 113.58,-45.94 129.26,-137.82l166.26 10.21c-10.75,86.96 -43.21,153.33 -97.35,198.54 -54.33,45.39 -120.87,68 -199.45,68 -96.44,0 -174.83,-33.37 -235.18,-99.91 -60.35,-66.55 -90.43,-158.61 -90.43,-276.21 0,-109.93 29.17,-199.99 87.51,-270.18 58.34,-70.19 138.19,-105.2 239.19,-105.2 175.02,0 273.65,94.26 295.71,282.95zm560.61 -272.01l0 144.39 -180.49 0 0 585.22 -172.83 0 0 -585.22 -181.58 0 0 -144.39 534.9 0zm-4631.44 932.16l222.43 0c90.61,0 158.06,12.58 202.55,37.74 44.49,25.16 84.23,64.72 119.41,119.23 35.19,54.33 52.87,122.88 52.87,206.01 0,104.28 -30.81,191.61 -92.25,261.62 -61.44,70.01 -146.21,105.01 -254.32,105.01l-250.68 0 0 -729.61zm167.37 134.54l0 458.33 70.19 0c62.17,0 108.3,-23.33 138.38,-69.83 30.08,-46.49 45.21,-101.18 45.21,-163.89 0,-44.12 -8.57,-85.14 -25.89,-122.7 -17.14,-37.56 -38.47,-63.99 -63.99,-79.13 -25.52,-15.13 -56.34,-22.79 -92.07,-22.79l-71.83 0zm1062.69 4.38l-346.76 0 0 149.86 272.37 0 0 136.73 -272.37 0 0 159.7 346.76 0 0 144.39 -520.68 0 0 -729.61 520.68 0 0 138.92zm606.91 21.51l-145.48 48.49c-19.69,-57.61 -61.26,-86.41 -124.7,-86.41 -67.82,0 -101.73,21.88 -101.73,65.63 0,17.5 6.38,32.27 18.96,44.3 12.77,12.03 41.2,22.6 85.87,31.9 74.38,15.31 128.89,30.62 163.53,45.94 34.64,15.13 63.81,39.74 87.69,73.83 23.7,33.91 35.55,71.83 35.55,113.76 0,65.82 -25.34,122.7 -76.21,170.65 -50.87,47.95 -126.16,72.01 -225.88,72.01 -74.93,0 -138.55,-16.96 -191.24,-51.05 -52.51,-34.09 -87.15,-84.59 -103.92,-151.69l158.61 -35.73c17.87,67.82 67.27,101.73 148.4,101.73 39.2,0 68.36,-7.48 87.51,-22.61 19.14,-15.13 28.81,-33.18 28.81,-54.14 0,-21.51 -8.76,-37.92 -26.25,-49.78 -17.32,-11.66 -51.05,-22.6 -100.82,-32.99 -92.98,-19.15 -159.16,-45.21 -198.72,-78.58 -39.56,-33.18 -59.25,-81.86 -59.25,-146.03 0,-64.72 23.52,-119.41 70.74,-163.89 47.22,-44.49 111.39,-66.73 192.16,-66.73 143.3,0 235.36,57.06 276.38,171.38zm301.36 -160.43l0 729.61 -170.65 0 0 -729.61 170.65 0zm713.75 339.1l0 390.51 -77.67 0c-5.65,-27.35 -13.86,-55.42 -24.61,-83.86 -51.96,63.26 -118.32,94.8 -198.9,94.8 -95.17,0 -169.19,-34.1 -222.06,-102.1 -53.05,-68 -79.49,-155.87 -79.49,-263.8 0,-116.13 28.26,-209.29 84.78,-279.85 56.33,-70.56 133.09,-105.74 229.89,-105.74 81.31,0 146.76,22.79 196.71,68.19 49.77,45.58 80.22,106.1 91.34,181.77l-161.9 21.33c-13.13,-88.24 -55.24,-132.36 -125.98,-132.36 -46.49,0 -81.49,20.97 -105.19,62.9 -23.88,41.93 -35.73,101.73 -35.73,179.58 0,74.93 12.94,132.17 38.65,171.74 25.71,39.56 62.35,59.43 109.75,59.43 30.81,0 58.16,-10.02 82.41,-29.9 24.06,-20.06 36.09,-51.96 36.09,-95.9l-137.82 0 0 -136.73 299.72 0zm694.78 -339.1l0 729.61 -148.04 0 -281.86 -492.79c0.37,12.4 0.73,20.6 1.1,24.61 1.46,12.4 2.19,22.97 2.19,31.54l0 436.63 -133.45 0 0 -729.61 184.86 0 246.13 430.25c-2.19,-21.33 -3.28,-37.56 -3.28,-48.68l0 -381.57 132.36 0zm667.81 138.92l-346.76 0 0 149.86 272.37 0 0 136.73 -272.37 0 0 159.7 346.76 0 0 144.39 -520.68 0 0 -729.61 520.68 0 0 138.92zm274.38 303l0 287.69 -171.74 0 0 -729.61 320.69 0c59.07,0 106.65,6.92 142.39,20.6 35.92,13.86 65.63,39.01 89.15,75.84 23.52,36.83 35.19,77.85 35.19,122.88 0,87.87 -42.29,150.95 -126.88,189.24l134.54 321.05 -188.33 0 -112.3 -287.69 -122.7 0zm0 -310.66l0 185.96 105.01 0c34.27,0 59.25,-2.37 74.75,-7.29 15.68,-4.74 29.35,-15.5 41.57,-31.9 12.21,-16.59 18.23,-35.55 18.23,-57.06 0,-20.24 -6.02,-38.47 -18.23,-54.51 -12.21,-15.86 -25.34,-25.89 -39.56,-29.54 -14.4,-3.83 -41.2,-5.65 -80.39,-5.65l-101.36 0z"></path> </g> </svg> 