<?xml version="1.0" encoding="UTF-8"?> <svg xmlns="http://www.w3.org/2000/svg" xmlns:xlink="http://www.w3.org/1999/xlink" xml:space="preserve" width="161.55mm" height="12.2742mm" version="1.1" style="shape-rendering:geometricPrecision; text-rendering:geometricPrecision; image-rendering:optimizeQuality; fill-rule:evenodd; clip-rule:evenodd" viewBox="0 0 16114.96 1224.38"> <defs> <style type="text/css"> .fil0 {fill:#F9FAFD;fill-rule:nonzero} </style> </defs> <g id="Camada_x0020_1"> <metadata id="CorelCorpID_0Corel-Layer"></metadata> <path class="fil0" d="M283.38 764.57l0 441.98 -283.38 0 0 -1188.73 468.13 0c104.26,0 184.16,11.28 239.7,33.57 55.25,22.27 104.86,62.08 148.22,119.7 43.66,57.33 65.35,127.72 65.35,211.48 0,58.51 -11.58,115.54 -34.75,171.39 -23.16,55.54 -55.84,99.5 -98.32,131.28 -42.18,32.08 -83.17,53.17 -122.97,63.56 -39.5,10.4 -101.88,15.75 -186.54,15.75l-195.44 0zm-8.91 -215.65l180.59 0c68.91,0 117.03,-16.04 144.95,-47.82 27.63,-32.08 41.59,-68.61 41.59,-109.9 0,-48.12 -15.44,-86.44 -46.33,-114.95 -31.19,-28.52 -78.13,-42.77 -141.09,-42.77l-179.7 0 0 315.45zm1080.9 188.92l0 468.72 -279.81 0 0 -1188.73 522.48 0c96.24,0 173.77,11.28 231.98,33.57 58.52,22.57 106.93,63.56 145.25,123.56 38.32,60 57.33,126.83 57.33,200.2 0,143.16 -68.91,245.94 -206.73,308.31l219.21 523.08 -306.84 0 -182.97 -468.72 -199.9 0zm0 -506.15l0 302.98 171.08 0c55.84,0 96.54,-3.86 121.79,-11.88 25.55,-7.72 47.82,-25.25 67.72,-51.98 19.9,-27.03 29.71,-57.93 29.71,-92.97 0,-32.98 -9.81,-62.67 -29.71,-88.82 -19.9,-25.84 -41.29,-42.18 -64.46,-48.12 -23.46,-6.23 -67.12,-9.21 -130.98,-9.21l-165.15 0zm1313.48 992.69c-159.8,0 -283.67,-60 -371.29,-180 -87.63,-120.3 -131.29,-265.55 -131.29,-436.05 0,-173.47 44.26,-318.13 133.07,-434.26 88.82,-116.14 215.06,-174.07 379.32,-174.07 165.74,0 290.8,61.79 375.15,185.65 84.36,123.86 126.54,265.84 126.54,425.35 0,172.28 -43.36,317.53 -130.4,435.75 -87.02,118.52 -213.86,177.63 -381.09,177.63zm8.02 -998.04c-145.55,0 -218.32,128.32 -218.32,385.25 0,257.53 72.77,386.44 218.32,386.44 140.8,0 211.2,-128.61 211.2,-385.54 0,-257.53 -70.4,-386.15 -211.2,-386.15zm685.55 -208.51l362.39 0c147.62,0 257.52,20.49 330,61.49 72.48,40.99 137.23,105.45 194.56,194.26 57.33,88.52 86.14,200.2 86.14,335.65 0,169.91 -50.2,312.18 -150.3,426.24 -100.1,114.07 -238.22,171.09 -414.36,171.09l-408.42 0 0 -1188.73zm272.68 219.21l0 746.74 114.36 0c101.29,0 176.44,-38.02 225.45,-113.77 49.01,-75.74 73.67,-164.85 73.67,-267.03 0,-71.88 -13.97,-138.72 -42.19,-199.9 -27.92,-61.19 -62.67,-104.26 -104.25,-128.92 -41.59,-24.65 -91.79,-37.13 -150.01,-37.13l-117.03 0zm1818.73 -219.21l0 739.91c0,119.7 -13.66,208.51 -40.99,266.74 -27.02,58.51 -77.53,106.34 -150.89,143.76 -73.37,37.43 -166.93,56.14 -281.29,56.14 -114.36,0 -205.25,-16.94 -272.67,-50.49 -67.72,-33.57 -118.22,-81.39 -151.78,-143.77 -33.57,-62.08 -50.49,-152.67 -50.49,-272.37l0 -739.91 301.19 0 0 740.5c0,63.86 5.35,111.09 16.04,141.09 10.69,30.3 32.38,54.36 64.45,72.18 32.08,17.53 71.89,26.43 118.81,26.43 52.28,0 94.75,-8.61 127.43,-26.14 32.67,-17.53 54.65,-40.4 65.35,-69.21 10.69,-28.81 16.04,-76.93 16.04,-144.36l0 -740.5 238.81 0zm1178.63 443.17l-292.27 18.41c-4.16,-168.71 -69.21,-253.07 -195.74,-253.07 -145.25,0 -217.73,129.21 -217.73,387.93 0,149.41 19.6,250.7 59.11,303.86 39.5,53.17 94.46,79.9 165.15,79.9 114.94,0 185.05,-74.84 210.6,-224.55l270.89 16.63c-17.52,141.69 -70.4,249.81 -158.62,323.48 -88.51,73.96 -196.93,110.79 -324.95,110.79 -157.13,0 -284.85,-54.36 -383.17,-162.78 -98.33,-108.42 -147.33,-258.42 -147.33,-450.01 0,-179.1 47.53,-325.84 142.58,-440.2 95.05,-114.37 225.15,-171.39 389.71,-171.39 285.15,0 445.84,153.57 481.78,460.99zm913.38 -443.17l0 235.25 -294.06 0 0 953.48 -281.59 0 0 -953.48 -295.84 0 0 -235.25 871.49 0zm565.55 0l362.39 0c147.62,0 257.52,20.49 330,61.49 72.48,40.99 137.23,105.45 194.56,194.26 57.33,88.52 86.14,200.2 86.14,335.65 0,169.91 -50.2,312.18 -150.3,426.24 -100.1,114.07 -238.22,171.09 -414.36,171.09l-408.42 0 0 -1188.73zm272.68 219.21l0 746.74 114.36 0c101.29,0 176.44,-38.02 225.45,-113.77 49.01,-75.74 73.67,-164.85 73.67,-267.03 0,-71.88 -13.97,-138.72 -42.19,-199.9 -27.92,-61.19 -62.67,-104.26 -104.25,-128.92 -41.59,-24.65 -91.79,-37.13 -150.01,-37.13l-117.03 0zm1731.41 7.13l-564.96 0 0 244.16 443.77 0 0 222.78 -443.77 0 0 260.19 564.96 0 0 235.26 -848.33 0 0 -1188.73 848.33 0 0 226.34zm988.82 35.05l-237.03 79c-32.08,-93.86 -99.8,-140.79 -203.18,-140.79 -110.5,0 -165.74,35.64 -165.74,106.93 0,28.51 10.39,52.57 30.88,72.18 20.8,19.6 67.13,36.83 139.91,51.98 121.19,24.95 210,49.9 266.44,74.85 56.43,24.65 103.96,64.75 142.86,120.29 38.61,55.25 57.93,117.03 57.93,185.35 0,107.23 -41.29,199.9 -124.16,278.03 -82.87,78.12 -205.55,117.33 -368.03,117.33 -122.08,0 -225.74,-27.63 -311.59,-83.17 -85.55,-55.54 -141.99,-137.83 -169.31,-247.14l258.42 -58.22c29.11,110.5 109.61,165.75 241.79,165.75 63.86,0 111.38,-12.18 142.58,-36.84 31.18,-24.65 46.93,-54.06 46.93,-88.21 0,-35.05 -14.26,-61.79 -42.77,-81.1 -28.22,-19 -83.17,-36.83 -164.26,-53.76 -151.48,-31.19 -259.32,-73.67 -323.77,-128.02 -64.46,-54.07 -96.54,-133.37 -96.54,-237.93 0,-105.45 38.31,-194.56 115.25,-267.03 76.93,-72.48 181.49,-108.72 313.07,-108.72 233.47,0 383.47,92.97 450.3,279.22zm491 -261.39l0 1188.73 -278.03 0 0 -1188.73 278.03 0zm1162.89 552.48l0 636.25 -126.55 0c-9.21,-44.56 -22.57,-90.3 -40.09,-136.63 -84.66,103.06 -192.78,154.46 -324.06,154.46 -155.05,0 -275.65,-55.55 -361.79,-166.35 -86.44,-110.78 -129.51,-253.96 -129.51,-429.8 0,-189.21 46.05,-340.99 138.13,-455.95 91.78,-114.95 216.83,-172.28 374.56,-172.28 132.47,0 239.11,37.13 320.49,111.09 81.09,74.26 130.7,172.87 148.82,296.14l-263.77 34.75c-21.39,-143.77 -90,-215.65 -205.25,-215.65 -75.74,0 -132.77,34.17 -171.38,102.48 -38.91,68.32 -58.22,165.75 -58.22,292.58 0,122.08 21.09,215.34 62.96,279.8 41.89,64.46 101.59,96.83 178.82,96.83 50.21,0 94.75,-16.33 134.27,-48.71 39.2,-32.68 58.8,-84.66 58.8,-156.24l-224.55 0 0 -222.78 488.33 0zm1131.99 -552.48l0 1188.73 -241.19 0 -459.22 -802.88c0.6,20.2 1.19,33.57 1.79,40.1 2.37,20.2 3.56,37.43 3.56,51.39l0 711.39 -217.43 0 0 -1188.73 301.19 0 401 701c-3.57,-34.75 -5.35,-61.19 -5.35,-79.31l0 -621.68 215.64 0zm1088.04 226.34l-564.96 0 0 244.16 443.77 0 0 222.78 -443.77 0 0 260.19 564.96 0 0 235.26 -848.33 0 0 -1188.73 848.33 0 0 226.34zm447.04 493.67l0 468.72 -279.81 0 0 -1188.73 522.48 0c96.24,0 173.77,11.28 231.98,33.57 58.52,22.57 106.93,63.56 145.25,123.56 38.32,60 57.33,126.83 57.33,200.2 0,143.16 -68.91,245.94 -206.73,308.31l219.21 523.08 -306.84 0 -182.97 -468.72 -199.9 0zm0 -506.15l0 302.98 171.08 0c55.84,0 96.54,-3.86 121.79,-11.88 25.55,-7.72 47.82,-25.25 67.72,-51.98 19.9,-27.03 29.71,-57.93 29.71,-92.97 0,-32.98 -9.81,-62.67 -29.71,-88.82 -19.9,-25.84 -41.29,-42.18 -64.46,-48.12 -23.46,-6.23 -67.12,-9.21 -130.98,-9.21l-165.15 0z"></path> </g> </svg> 